<?xml version="1.0" encoding="iso-8859-1"?>
<!-- Generator: Adobe Illustrator 21.0.2, SVG Export Plug-In . SVG Version: 6.00 Build 0)  -->
<svg version="1.1" id="Layer_1" xmlns="http://www.w3.org/2000/svg" xmlns:xlink="http://www.w3.org/1999/xlink" x="0px" y="0px"
	 viewBox="0 0 448 128" style="enable-background:new 0 0 448 128;" xml:space="preserve">
<g>
	<rect x="184.55" y="115.224" style="fill:#F05C24;" width="78.899" height="6.574"/>
	<g>
		<rect x="184.55" y="3.799" style="fill:#231F20;" width="78.899" height="111.426"/>
		<g>
			<polygon style="fill:none;stroke:#FFFFFF;stroke-width:1.297;stroke-miterlimit:2.613;" points="221.823,76.169 248.051,76.169 
				248.051,28.387 199.714,28.387 199.714,76.169 			"/>
			<rect x="199.493" y="79.007" style="fill:#FFFFFF;" width="3.506" height="11.481"/>
			<path style="fill:#FFFFFF;" d="M215.743,79.485c-0.324-0.17-0.719-0.292-1.185-0.367c-0.466-0.074-1.091-0.112-1.873-0.112
				h-8.812v11.481h3.532v-2.864h6.544c1.252,0,2.141-0.324,2.667-0.975c0.527-0.651,0.79-1.761,0.79-3.334
				c0-1.053-0.132-1.878-0.394-2.477C216.747,80.24,216.325,79.788,215.743,79.485 M213.542,84.419
				c-0.187,0.227-0.515,0.341-0.981,0.341h-5.157v-2.889h5.157c0.441,0,0.762,0.106,0.962,0.318
				c0.201,0.212,0.301,0.552,0.301,1.015C213.823,83.787,213.729,84.192,213.542,84.419"/>
			<path style="fill:#FFFFFF;" d="M228.635,83.37l-5.767-0.091c-0.523-0.041-0.882-0.135-1.077-0.283
				c-0.196-0.147-0.293-0.385-0.293-0.714c0-0.336,0.107-0.57,0.322-0.704c0.215-0.133,0.66-0.2,1.331-0.2h4.033
				c0.385,0,0.673,0.095,0.865,0.285c0.193,0.189,0.288,0.474,0.288,0.853v0.047h3.383c0.016-0.185,0.024-0.319,0.027-0.4
				c0.002-0.083,0.004-0.16,0.004-0.231c0-1.084-0.292-1.867-0.875-2.349c-0.585-0.483-1.541-0.724-2.868-0.724h-5.341
				c-1.222,0-2.104,0.066-2.645,0.199c-0.543,0.133-0.981,0.359-1.316,0.678c-0.284,0.283-0.49,0.638-0.619,1.064
				c-0.129,0.426-0.194,0.967-0.194,1.625c0,1.274,0.244,2.153,0.73,2.636c0.488,0.482,1.422,0.745,2.804,0.785l5.502,0.123
				c0.708,0.052,1.169,0.153,1.384,0.304c0.214,0.149,0.321,0.396,0.321,0.744c0,0.341-0.093,0.585-0.28,0.733
				c-0.187,0.147-0.497,0.221-0.932,0.221h-4.394c-0.678,0-1.123-0.076-1.336-0.229c-0.212-0.152-0.318-0.446-0.318-0.878v-0.209
				l-3.457,0.007c-0.016,0.228-0.027,0.42-0.036,0.577c-0.008,0.158-0.011,0.27-0.011,0.338c0,1.177,0.325,1.981,0.973,2.413
				c0.648,0.431,1.932,0.647,3.855,0.647h4.662c1.003,0,1.769-0.042,2.299-0.127c0.53-0.084,0.95-0.225,1.258-0.421
				c0.467-0.309,0.801-0.683,0.999-1.121c0.199-0.437,0.297-1.056,0.297-1.855c0-1.344-0.269-2.295-0.806-2.852
				C230.874,83.703,229.949,83.407,228.635,83.37"/>
			<path style="fill:#FFFFFF;" d="M247.013,79.662c-0.381-0.288-0.893-0.494-1.538-0.618c-0.645-0.123-1.621-0.185-2.926-0.185
				h-4.125c-1.303,0-2.275,0.062-2.916,0.185c-0.64,0.123-1.154,0.33-1.541,0.618c-0.443,0.329-0.762,0.774-0.958,1.334
				c-0.195,0.561-0.293,1.322-0.293,2.284v3.146c0,0.88,0.098,1.583,0.293,2.117c0.196,0.532,0.515,0.963,0.958,1.292
				c0.391,0.293,0.899,0.5,1.522,0.621c0.623,0.119,1.606,0.18,2.951,0.18h4.109c1.326,0,2.305-0.06,2.938-0.18
				c0.633-0.121,1.142-0.33,1.527-0.622c0.428-0.328,0.74-0.769,0.937-1.323c0.198-0.553,0.297-1.272,0.297-2.156v-3.214
				c0-0.874-0.099-1.592-0.297-2.153C247.753,80.427,247.441,79.985,247.013,79.662 M244.692,85.565
				c0,0.846-0.204,1.426-0.609,1.739c-0.406,0.312-1.228,0.468-2.467,0.468h-2.228c-1.234,0-2.058-0.154-2.472-0.465
				c-0.414-0.31-0.62-0.88-0.62-1.711v-1.604c0-0.883,0.196-1.481,0.589-1.797c0.394-0.316,1.223-0.473,2.487-0.473h2.244
				c1.24,0,2.061,0.156,2.467,0.468c0.405,0.312,0.609,0.892,0.609,1.739V85.565z"/>
			<path style="fill:#FFFFFF;" d="M251.938,87.638c-0.343-0.341-0.758-0.512-1.244-0.512c-0.483,0-0.896,0.171-1.236,0.512
				c-0.343,0.343-0.515,0.756-0.515,1.238c0,0.487,0.17,0.903,0.511,1.245c0.34,0.343,0.754,0.515,1.241,0.515
				c0.487,0,0.901-0.172,1.244-0.515c0.343-0.344,0.514-0.759,0.514-1.245C252.452,88.392,252.282,87.98,251.938,87.638
				 M251.764,89.952c-0.294,0.296-0.651,0.445-1.071,0.445c-0.42,0-0.777-0.148-1.071-0.445c-0.293-0.296-0.439-0.653-0.439-1.074
				c0-0.416,0.147-0.772,0.441-1.067c0.295-0.295,0.652-0.444,1.069-0.444c0.419,0,0.776,0.149,1.071,0.444
				c0.294,0.295,0.441,0.651,0.441,1.067C252.205,89.299,252.058,89.656,251.764,89.952"/>
			<path style="fill:#FFFFFF;" d="M251.463,89.708c-0.004-0.05-0.005-0.098-0.005-0.143v-0.14c0-0.097-0.036-0.196-0.106-0.297
				c-0.07-0.103-0.181-0.165-0.333-0.188c0.12-0.019,0.212-0.05,0.279-0.093c0.125-0.081,0.189-0.208,0.189-0.381
				c0-0.242-0.1-0.404-0.301-0.487c-0.112-0.046-0.287-0.069-0.527-0.069h-0.677v1.921h0.338v-0.754h0.27
				c0.181,0,0.309,0.021,0.381,0.061c0.122,0.072,0.183,0.218,0.183,0.438v0.152l0.007,0.061c0.001,0.009,0.003,0.016,0.004,0.022
				c0.003,0.006,0.004,0.012,0.006,0.019h0.318l-0.013-0.023C251.472,89.792,251.466,89.76,251.463,89.708 M250.957,88.796
				c-0.073,0.028-0.182,0.042-0.326,0.042h-0.309v-0.695h0.292c0.189,0,0.327,0.024,0.414,0.072c0.085,0.046,0.129,0.141,0.129,0.28
				C251.157,88.643,251.089,88.743,250.957,88.796"/>
			<path style="fill-rule:evenodd;clip-rule:evenodd;fill:#F05C24;" d="M204.822,30.325h-0.965l-2.439,18.298
				c11.082,2.9,20.32,12.46,20.382,25.857h1.473V48.525C208.627,47.812,204.675,35.716,204.822,30.325"/>
			<path style="fill-rule:evenodd;clip-rule:evenodd;fill:#F05C24;" d="M204.162,51.806c1.65,14.088,14.74,15.96,14.74,15.96
				C215.132,55.651,204.162,51.806,204.162,51.806"/>
			<path style="fill-rule:evenodd;clip-rule:evenodd;fill:#F05C24;" d="M246.347,48.623l-2.44-18.298h-0.965
				c0.147,5.391-3.805,17.487-18.45,18.2V74.48h1.473C226.027,61.082,235.266,51.523,246.347,48.623"/>
			<path style="fill-rule:evenodd;clip-rule:evenodd;fill:#F05C24;" d="M228.863,67.766c0,0,13.091-1.872,14.74-15.96
				C243.603,51.806,232.633,55.651,228.863,67.766"/>
		</g>
	</g>
</g>
</svg>
