<?xml version="1.0" encoding="utf-8"?>
<!-- Generator: Adobe Illustrator 22.0.1, SVG Export Plug-In . SVG Version: 6.00 Build 0)  -->
<svg version="1.1" id="Layer_1" xmlns="http://www.w3.org/2000/svg" xmlns:xlink="http://www.w3.org/1999/xlink" x="0px" y="0px"
	 viewBox="0 0 181.5 88.3" style="enable-background:new 0 0 181.5 88.3;" xml:space="preserve">
<style type="text/css">
	.st0{fill:#000105;}
	.st1{fill:#EF5C22;}
	.st2{fill:#FFFFFF;}
	.st3{fill-rule:evenodd;clip-rule:evenodd;fill:#EF5C22;}
</style>
<g>
	<rect class="st0" width="181.5" height="81.5"/>
	<rect y="81.5" class="st1" width="181.5" height="6.8"/>
	<g>
		<path class="st2" d="M75.9,65.5H25.1V15.2h50.8V65.5z M26,64.6H75V16.1H26V64.6z"/>
	</g>
	<path class="st3" d="M30.8,17.7h-1l-2.5,18.9c11.5,3,21,12.9,21.1,26.7h1.5V36.5C34.7,35.7,30.7,23.2,30.8,17.7"/>
	<path class="st3" d="M30.1,39.9c1.7,14.6,15.2,16.5,15.2,16.5C41.5,43.8,30.1,39.9,30.1,39.9"/>
	<path class="st3" d="M73.7,36.6l-2.5-18.9h-1c0.2,5.6-3.9,18.1-19.1,18.8v26.8h1.5C52.7,49.5,62.3,39.6,73.7,36.6"/>
	<path class="st3" d="M55.6,56.4c0,0,13.5-1.9,15.2-16.5C70.9,39.9,59.5,43.8,55.6,56.4"/>
	<g>
		<rect x="80.9" y="31.9" class="st2" width="5.4" height="17.8"/>
		<path class="st2" d="M106.1,32.6c-0.5-0.3-1.1-0.5-1.8-0.6c-0.7-0.1-1.7-0.2-2.9-0.2H87.6v17.8h5.5v-4.4h10.1
			c1.9,0,3.3-0.5,4.1-1.5c0.8-1,1.2-2.7,1.2-5.2c0-1.6-0.2-2.9-0.6-3.8C107.6,33.8,107,33.1,106.1,32.6 M102.6,40.3
			c-0.3,0.4-0.8,0.5-1.5,0.5h-8v-4.5h8c0.7,0,1.2,0.2,1.5,0.5c0.3,0.3,0.5,0.9,0.5,1.6C103.1,39.3,102.9,39.9,102.6,40.3"/>
		<path class="st2" d="M126,38.6l-8.9-0.1c-0.8-0.1-1.4-0.2-1.7-0.4c-0.3-0.2-0.5-0.6-0.5-1.1c0-0.5,0.2-0.9,0.5-1.1
			c0.3-0.2,1-0.3,2.1-0.3h6.3c0.6,0,1,0.1,1.3,0.4c0.3,0.3,0.4,0.7,0.4,1.3v0.1h5.2c0-0.3,0-0.5,0-0.6c0-0.1,0-0.2,0-0.4
			c0-1.7-0.5-2.9-1.4-3.6c-0.9-0.7-2.4-1.1-4.4-1.1h-8.3c-1.9,0-3.3,0.1-4.1,0.3c-0.8,0.2-1.5,0.6-2,1.1c-0.4,0.4-0.8,1-1,1.7
			c-0.2,0.7-0.3,1.5-0.3,2.5c0,2,0.4,3.3,1.1,4.1c0.8,0.7,2.2,1.2,4.3,1.2l8.5,0.2c1.1,0.1,1.8,0.2,2.1,0.5c0.3,0.2,0.5,0.6,0.5,1.2
			c0,0.5-0.1,0.9-0.4,1.1c-0.3,0.2-0.8,0.3-1.4,0.3h-6.8c-1.1,0-1.7-0.1-2.1-0.4c-0.3-0.2-0.5-0.7-0.5-1.4v-0.3l-5.4,0
			c0,0.4,0,0.7-0.1,0.9c0,0.2,0,0.4,0,0.5c0,1.8,0.5,3.1,1.5,3.7c1,0.7,3,1,6,1h7.2c1.6,0,2.7-0.1,3.6-0.2c0.8-0.1,1.5-0.3,2-0.7
			c0.7-0.5,1.2-1.1,1.5-1.7c0.3-0.7,0.5-1.6,0.5-2.9c0-2.1-0.4-3.6-1.2-4.4C129.5,39.2,128.1,38.7,126,38.6"/>
		<path class="st2" d="M154.5,32.9c-0.6-0.4-1.4-0.8-2.4-1c-1-0.2-2.5-0.3-4.5-0.3h-6.4c-2,0-3.5,0.1-4.5,0.3c-1,0.2-1.8,0.5-2.4,1
			c-0.7,0.5-1.2,1.2-1.5,2.1c-0.3,0.9-0.5,2-0.5,3.5v4.9c0,1.4,0.2,2.5,0.5,3.3c0.3,0.8,0.8,1.5,1.5,2c0.6,0.5,1.4,0.8,2.4,1
			c1,0.2,2.5,0.3,4.6,0.3h6.4c2.1,0,3.6-0.1,4.6-0.3c1-0.2,1.8-0.5,2.4-1c0.7-0.5,1.1-1.2,1.5-2.1c0.3-0.9,0.5-2,0.5-3.3v-5
			c0-1.4-0.2-2.5-0.5-3.3C155.7,34.1,155.2,33.4,154.5,32.9 M150.9,42c0,1.3-0.3,2.2-0.9,2.7c-0.6,0.5-1.9,0.7-3.8,0.7h-3.5
			c-1.9,0-3.2-0.2-3.8-0.7c-0.6-0.5-1-1.4-1-2.7v-2.5c0-1.4,0.3-2.3,0.9-2.8c0.6-0.5,1.9-0.7,3.9-0.7h3.5c1.9,0,3.2,0.2,3.8,0.7
			c0.6,0.5,0.9,1.4,0.9,2.7V42z"/>
		<path class="st2" d="M162.2,45.3c-0.5-0.5-1.2-0.8-1.9-0.8c-0.7,0-1.4,0.3-1.9,0.8c-0.5,0.5-0.8,1.2-0.8,1.9
			c0,0.8,0.3,1.4,0.8,1.9c0.5,0.5,1.2,0.8,1.9,0.8c0.8,0,1.4-0.3,1.9-0.8c0.5-0.5,0.8-1.2,0.8-1.9C163,46.4,162.7,45.8,162.2,45.3
			 M161.9,48.8c-0.5,0.5-1,0.7-1.7,0.7c-0.7,0-1.2-0.2-1.7-0.7c-0.5-0.5-0.7-1-0.7-1.7c0-0.6,0.2-1.2,0.7-1.7c0.5-0.5,1-0.7,1.7-0.7
			c0.7,0,1.2,0.2,1.7,0.7c0.5,0.5,0.7,1,0.7,1.7C162.6,47.8,162.4,48.4,161.9,48.8"/>
		<path class="st2" d="M161.4,48.5c0-0.1,0-0.2,0-0.2V48c0-0.2-0.1-0.3-0.2-0.5c-0.1-0.2-0.3-0.3-0.5-0.3c0.2,0,0.3-0.1,0.4-0.1
			c0.2-0.1,0.3-0.3,0.3-0.6c0-0.4-0.2-0.6-0.5-0.8c-0.2-0.1-0.4-0.1-0.8-0.1h-1v3h0.5v-1.2h0.4c0.3,0,0.5,0,0.6,0.1
			c0.2,0.1,0.3,0.3,0.3,0.7v0.2l0,0.1c0,0,0,0,0,0c0,0,0,0,0,0h0.5l0,0C161.4,48.6,161.4,48.5,161.4,48.5 M160.6,47
			c-0.1,0-0.3,0.1-0.5,0.1h-0.5V46h0.5c0.3,0,0.5,0,0.6,0.1c0.1,0.1,0.2,0.2,0.2,0.4C161,46.8,160.9,47,160.6,47"/>
	</g>
</g>
</svg>
