<?xml version="1.0" encoding="iso-8859-1"?>
<!-- Generator: Adobe Illustrator 21.0.2, SVG Export Plug-In . SVG Version: 6.00 Build 0)  -->
<svg version="1.1" id="Layer_1" xmlns="http://www.w3.org/2000/svg" xmlns:xlink="http://www.w3.org/1999/xlink" x="0px" y="0px"
	 viewBox="0 0 448 128" style="enable-background:new 0 0 448 128;" xml:space="preserve">
<g>
	<path style="fill:#00AEEF;" d="M151.098,37.01h145.737c19.811,0,36.061,13.977,36.061,31.074v1.832
		c0,17.098-16.216,31.074-36.061,31.074H151.098c-19.778,0-35.993-13.977-35.993-31.074v-1.832
		C115.105,50.986,131.32,37.01,151.098,37.01"/>
	<path style="fill:#FFFFFF;" d="M294.799,82.366c-2.035,0-3.935-0.305-5.665-0.814s-3.257-1.119-4.41-1.73v-5.665h0.305
		c0.475,0.339,0.916,0.678,1.561,1.086c0.577,0.407,1.323,0.882,2.307,1.323c0.882,0.407,1.798,0.746,2.85,1.052
		c1.052,0.271,2.137,0.441,3.257,0.441c0.814,0,1.662-0.102,2.612-0.271c0.916-0.17,1.628-0.407,2.035-0.746
		c0.645-0.407,1.086-0.814,1.391-1.289c0.271-0.475,0.407-1.221,0.407-2.137c0-1.221-0.339-2.103-0.984-2.714
		c-0.645-0.645-1.798-1.119-3.46-1.56c-0.645-0.102-1.493-0.339-2.544-0.509c-1.052-0.237-2.035-0.475-2.917-0.712
		c-2.307-0.712-4.003-1.73-5.055-3.121c-1.052-1.391-1.56-3.087-1.56-5.089c0-2.714,1.052-4.919,3.087-6.615
		c2.069-1.73,4.817-2.612,8.243-2.612c1.662,0,3.358,0.237,5.055,0.645c1.696,0.407,3.121,0.916,4.308,1.56v5.462h-0.305
		c-1.289-1.052-2.714-1.866-4.342-2.443c-1.56-0.577-3.189-0.882-4.817-0.882c-1.662,0-3.121,0.339-4.24,1.052
		c-1.153,0.678-1.73,1.73-1.73,3.189c0,1.289,0.305,2.205,0.984,2.85c0.678,0.577,1.798,1.086,3.291,1.493
		c0.746,0.17,1.628,0.407,2.544,0.577c0.916,0.17,1.9,0.407,2.951,0.645c2.205,0.577,3.867,1.493,5.055,2.85
		c1.086,1.289,1.662,3.019,1.662,5.292c0,1.323-0.271,2.544-0.746,3.698c-0.509,1.153-1.289,2.137-2.273,2.951
		c-1.119,0.916-2.307,1.628-3.698,2.069C298.564,82.162,296.834,82.366,294.799,82.366 M279.296,81.687h-5.089v-3.358
		c-1.56,1.323-3.053,2.375-4.444,3.121c-1.391,0.678-2.951,1.052-4.681,1.052c-1.323,0-2.544-0.237-3.766-0.645
		c-1.153-0.475-2.137-1.086-3.019-2.103c-0.882-0.916-1.56-2.069-2.035-3.528c-0.441-1.391-0.678-3.121-0.678-5.156V51.427h5.089
		v17.199c0,1.628,0,2.951,0.17,4.003c0.102,1.052,0.339,1.968,0.746,2.782c0.407,0.746,0.984,1.323,1.73,1.696
		c0.712,0.339,1.73,0.577,3.019,0.577c1.289,0,2.612-0.407,4.003-1.119c1.391-0.678,2.714-1.56,3.867-2.612V51.427h5.089V81.687z
		 M243.472,81.687V64.183c0-1.391-0.068-2.68-0.17-3.901c-0.068-1.153-0.305-2.069-0.645-2.714c-0.339-0.746-0.882-1.289-1.56-1.628
		c-0.645-0.339-1.56-0.509-2.68-0.509c-1.052,0-2.205,0.339-3.358,0.984c-1.221,0.645-2.476,1.56-3.766,2.782
		c0.068,0.305,0.068,0.645,0.102,1.052v1.493v19.947h-5.089V64.183c0-1.391-0.068-2.68-0.102-3.901
		c-0.136-1.153-0.339-2.069-0.712-2.714c-0.339-0.746-0.882-1.289-1.561-1.628c-0.645-0.339-1.56-0.509-2.68-0.509
		c-1.119,0-2.273,0.339-3.494,1.052c-1.221,0.678-2.375,1.56-3.528,2.612v22.593h-5.089v-30.26h5.089v3.358
		c1.323-1.323,2.68-2.375,4.003-3.121c1.289-0.678,2.748-1.086,4.308-1.086c1.798,0,3.358,0.475,4.749,1.289
		c1.391,0.814,2.443,2.137,3.121,4.003c1.56-1.73,3.087-3.019,4.512-3.935c1.459-0.916,3.087-1.357,4.783-1.357
		c1.255,0,2.476,0.237,3.528,0.645c1.086,0.407,2.035,1.052,2.782,1.968c0.814,0.916,1.459,2.069,1.9,3.426
		c0.407,1.391,0.645,3.121,0.645,5.156v19.947h-5.089V81.687z M201.678,81.687h-5.055v-30.26h5.055V81.687z M192.587,56.889h-0.305
		c-0.339-0.102-0.814-0.17-1.221-0.17c-0.407-0.068-0.916-0.068-1.493-0.068c-1.391,0-2.714,0.305-4.105,0.916
		c-1.323,0.577-2.612,1.459-3.833,2.612v21.508h-5.089v-30.26h5.089v4.478c1.866-1.628,3.46-2.782,4.851-3.426
		c1.391-0.712,2.714-1.052,4.003-1.052c0.509,0,0.916,0,1.221,0.068c0.237,0,0.509,0.068,0.882,0.102V56.889z M166.024,66.32
		c0-3.46-0.577-6.14-1.662-8.074c-1.119-1.9-2.917-2.85-5.326-2.85c-1.459,0-2.85,0.339-4.173,0.984
		c-1.391,0.645-2.68,1.459-3.867,2.443v17.165c1.391,0.645,2.476,1.086,3.494,1.323c0.916,0.237,2.035,0.339,3.257,0.339
		c2.612,0,4.614-0.984,6.14-2.884C165.278,72.867,166.024,70.052,166.024,66.32 M171.249,65.743c0,5.055-1.221,9.058-3.596,12.009
		c-2.443,3.019-5.462,4.512-9.159,4.512c-1.493,0-2.782-0.17-3.935-0.509c-1.153-0.339-2.375-0.882-3.596-1.628v9.227l-5.055,3.46
		V51.427h5.055v3.189c1.289-1.153,2.68-2.137,4.24-2.884c1.561-0.746,3.257-1.153,5.055-1.153c3.494,0,6.14,1.391,8.108,4.105
		C170.265,57.466,171.249,61.096,171.249,65.743"/>
	<path style="fill:#FFFFFF;" d="M199.371,41.42c1.459,0,2.612,1.153,2.612,2.612c0,1.459-1.153,2.612-2.612,2.612
		s-2.612-1.153-2.612-2.612C196.759,42.573,197.913,41.42,199.371,41.42"/>
	<circle style="fill:none;stroke:#FFFFFF;stroke-width:0.0279;stroke-miterlimit:2.414;" cx="199.371" cy="44.032" r="2.612"/>
</g>
</svg>
