<?xml version="1.0" encoding="iso-8859-1"?>
<!-- Generator: Adobe Illustrator 21.0.2, SVG Export Plug-In . SVG Version: 6.00 Build 0)  -->
<svg version="1.1" id="Layer_1" xmlns="http://www.w3.org/2000/svg" xmlns:xlink="http://www.w3.org/1999/xlink" x="0px" y="0px"
	 viewBox="0 0 448 128" style="enable-background:new 0 0 448 128;" xml:space="preserve">
<g>
	<path style="fill:#7FB539;" d="M72.62,55.555c5.458,13.969,11.383,28.117,16.842,42.086c0.18,0.575,0.108,0.826-0.215,0.718
		c-6.751-2.657-13.358-7.864-16.518-15.01c-3.95-7.541-3.986-14.687-3.268-20.863c0.215-1.652,1.472-4.273,2.442-6.787
		C72.189,55.339,72.332,55.052,72.62,55.555z M84.362,65.178c-2.119-5.351-4.812-10.45-6.931-15.8
		c-2.262-4.345-8.044-3.591-10.198-0.108c-4.166,6.428-6.212,16.842-5.063,24.778c1.293,11.491,7.685,19.032,13.789,24.526
		c8.726,7.864,20.073,9.265,27.614,8.977c1.724-0.108,4.92-0.431,7.11-1.544c-0.431-0.072-0.754-0.144-1.149-0.18
		c-0.359-0.036-0.718-0.072-1.149-0.144c-1.688-0.251-8.259-1.005-10.127-5.135c-3.986-10.091-7.002-17.632-10.988-27.722
		l27.579-0.108c2.262,5.494,4.561,11.204,6.679,16.554c2.37,5.853,8.367,4.668,11.168,0.503c4.166-6.392,6.715-15.549,5.53-23.485
		c-0.79-11.419-6.643-20.109-13.071-25.819c-8.367-8.439-21.51-10.701-29.374-9.911c-3.052,0.431-4.417,0.934-5.925,1.652
		c0.97,0,2.19,0.072,3.016,0.251c2.19,0.036,7.11,2.873,8.044,5.638c3.986,10.091,7.146,17.057,11.096,27.184L84.362,65.178
		L84.362,65.178z M127.274,83.672c-5.458-13.969-11.742-29.087-17.201-43.056c-0.18-0.575,0.108-0.97,0.431-0.862
		c6.751,2.657,13.646,7.002,17.38,15.477c4.094,7.433,4.058,14.723,2.837,20.72c-0.215,1.652-1.508,5.315-2.729,7.541
		C127.741,83.887,127.597,84.174,127.274,83.672z"/>
	<path style="fill:#7FB539;" d="M167.313,87.119V73.761h-2.837v13.358h-14.436v-34.94h14.436v11.383h2.837V52.179h14.507v34.94
		H167.313z M201.284,87.119v-2.657c-1.975,1.975-4.525,3.34-8.044,3.232c-3.268-0.072-5.889-1.688-7.146-3.914
		c-0.682-1.185-1.365-3.052-1.365-6.464V60.223h13.717V79.47h2.837V60.223h13.574v26.896H201.284z M242.185,86.114
		c-3.34,1.688-7.074,1.867-9.983,1.867c-12.281,0-15.19-5.674-15.19-14.256c0-9.624,4.13-14.328,15.692-14.328
		c6.895,0,11.06,1.76,13.322,5.386c0.898,1.544,1.688,3.555,1.688,8.367v1.975h-16.734v6.284h2.873V77.89h13.861
		C247.751,81.302,245.381,84.534,242.185,86.114 M233.854,65.322h-2.873v5.099h2.873V65.322z M277.053,85.503
		c-1.76,1.76-3.842,2.226-6.105,2.226c-3.519,0-5.889-1.4-7.433-3.124v2.55h-13.61V52.179h13.61v10.127
		c1.688-1.652,3.914-2.657,7.29-2.657c3.232,0,5.494,1.257,6.966,3.34c1.867,2.55,2.262,6.105,2.19,11.204
		C279.962,78.644,279.567,82.989,277.053,85.503 M266.352,67.979h-2.837V79.65h2.837V67.979z M296.013,87.981
		c-7.649,0-14.687-1.867-14.687-9.301h13.43v2.837h2.837v-3.124c-3.447-0.718-8.223-1.76-10.665-2.729
		c-3.268-1.293-4.991-3.699-4.92-7.254c0.108-5.781,4.13-9.049,13.717-9.049c8.511,0,14.22,2.083,14.22,9.157h-12.353v-2.621h-2.801
		v3.232c2.514,0.575,7.469,1.185,10.881,2.37c2.765,1.041,4.812,3.268,4.812,6.895C310.521,84.821,306.283,87.981,296.013,87.981
		 M342.444,74.91c0,0.79,0,1.293-0.072,1.939c-0.395,6.356-3.735,11.096-14.795,11.168c-11.742,0.072-15.297-4.74-15.297-14.22
		c0-9.336,3.34-14.4,15.297-14.4c10.091,0,14.507,4.13,14.831,10.773v1.903h-13.43v-6.464h-2.837v15.8h2.837v-6.5L342.444,74.91z
		 M361.082,87.119V68.195h-2.909v18.924h-13.538v-34.94h13.538v10.522c0.79-0.754,3.232-2.945,7.649-2.945
		c3.304,0,5.494,1.113,6.966,3.124c1.257,1.76,1.867,3.806,1.867,7.146v17.093H361.082z"/>
	<path style="fill:#7FB539;" d="M377.492,82.846c0-2.442,1.975-4.237,4.345-4.237c2.334,0,4.309,1.795,4.309,4.237
		c0,2.478-1.975,4.273-4.309,4.273C379.467,87.119,377.492,85.324,377.492,82.846 M381.801,86.401c1.939,0,3.447-1.508,3.447-3.555
		c0-2.011-1.508-3.555-3.447-3.555s-3.483,1.508-3.483,3.555C378.354,84.893,379.862,86.401,381.801,86.401 M380.904,85.324h-0.754
		v-4.92h1.867c1.149,0,1.724,0.431,1.724,1.4c0,0.862-0.539,1.257-1.293,1.365l1.4,2.155h-0.826l-1.293-2.119h-0.862v2.119H380.904z
		 M381.801,82.559c0.646,0,1.185-0.036,1.185-0.79c0-0.61-0.539-0.718-1.077-0.718h-1.005v1.508H381.801z"/>
</g>
</svg>
