<?xml version="1.0" encoding="iso-8859-1"?>
<!-- Generator: Adobe Illustrator 21.0.2, SVG Export Plug-In . SVG Version: 6.00 Build 0)  -->
<svg version="1.1" id="Layer_1" xmlns="http://www.w3.org/2000/svg" xmlns:xlink="http://www.w3.org/1999/xlink" x="0px" y="0px"
	 viewBox="0 0 448 128" style="enable-background:new 0 0 448 128;" xml:space="preserve">
<g>
	<path style="fill:#EF4923;" d="M102.78,85.06c-7.897,0-17.472-0.368-17.472-12.316v-0.818h15.017v5.401h2.823v-5.156
		c-2.496-0.859-5.36-1.678-8.265-2.619c-4.583-1.637-9.002-3.683-9.125-10.066c-0.205-8.511,5.933-11.948,16.04-11.948
		c13.176,0,16.163,4.951,16.163,10.884v1.391h-14.812v-4.501h-2.823v4.46c1.923,0.614,4.665,1.391,7.734,2.291
		c5.319,1.514,10.68,3.764,10.68,10.639C118.738,82.073,111.905,85.06,102.78,85.06"/>
	<path style="fill:#EF4923;" d="M150.45,80.313c-1.555,2.782-4.174,4.501-8.02,4.501c-3.683,0-6.097-1.228-7.488-3.069v11.621
		h-13.748V56.704h13.626v2.905c1.105-1.8,3.519-3.478,7.774-3.396c2.701,0,4.665,0.818,6.22,2.291
		c2.496,2.373,3.069,5.851,3.069,11.703C151.882,74.421,151.759,77.94,150.45,80.313 M137.847,64.355h-2.946v12.071h2.946V64.355z"
		/>
	<path style="fill:#EF4923;" d="M179.543,82.973c-3.355,1.719-7.161,1.882-10.107,1.882c-12.48,0-15.426-5.729-15.426-14.485
		c0-9.779,4.215-14.567,15.917-14.567c6.997,0,11.212,1.8,13.503,5.483c0.9,1.514,1.759,3.642,1.759,8.511v2.005h-17.022v6.383
		h2.905v-3.56h14.117C185.189,78.104,182.775,81.336,179.543,82.973 M171.072,61.9h-2.905v5.197h2.905V61.9z"/>
	<path style="fill:#EF4923;" d="M212.85,82.973c-3.437,1.719-7.161,1.882-10.148,1.882c-12.439,0-15.385-5.729-15.385-14.485
		c0-9.779,4.174-14.567,15.917-14.567c6.997,0,11.212,1.8,13.503,5.483c0.9,1.514,1.759,3.642,1.759,8.511v2.005h-17.022v6.383
		h2.905v-3.56h14.117C218.497,78.104,216.041,81.336,212.85,82.973 M204.38,61.9h-2.905v5.197h2.905V61.9z"/>
	<path style="fill:#EF4923;" d="M237.319,84.037v-2.578c-1.555,1.719-3.969,3.11-7.529,3.11c-2.25,0-4.296-0.368-6.179-2.21
		c-2.578-2.496-2.987-6.997-3.069-11.416c-0.041-5.197,0.409-8.756,1.841-11.048c1.759-2.701,4.215-3.764,7.57-3.764
		c3.437,0,5.729,1.023,7.365,2.742V48.52h13.789v35.517H237.319z M237.319,64.274h-2.864v11.825h2.864V64.274z"/>
	<path style="fill:#EF4923;" d="M286.871,85.06c-5.974,0-9.616-1.432-12.234-3.805c-3.273-3.028-3.764-8.184-3.764-15.017
		c0-14.526,3.519-18.822,16.49-18.822c12.971,0,16.49,4.255,16.49,18.822c0,3.642-0.205,8.552-1.391,11.293h3.151v7.57h-18.74V85.06
		z M288.753,55.64h-2.823v21.891h2.823V55.64z"/>
	<path style="fill:#EF4923;" d="M323.902,84.037v-2.701c-2.046,2.005-4.665,3.355-8.184,3.233c-3.355-0.041-6.015-1.719-7.283-3.928
		c-0.696-1.228-1.391-3.11-1.391-6.547v-17.39h13.912v19.559h2.864V56.704h13.789v27.333H323.902z"/>
	<path style="fill:#EF4923;" d="M365.433,82.973c-3.437,1.719-7.161,1.882-10.148,1.882c-12.439,0-15.426-5.729-15.426-14.485
		c0-9.779,4.215-14.567,15.958-14.567c7.038,0,11.212,1.8,13.503,5.483c0.9,1.514,1.719,3.642,1.719,8.511v2.005h-17.022v6.383
		h2.946v-3.56h14.076C371.08,78.104,368.666,81.336,365.433,82.973 M356.963,61.9h-2.946v5.197h2.946V61.9z"/>
	<path style="fill:#EF4923;" d="M398.7,82.973c-3.396,1.719-7.202,1.882-10.107,1.882c-12.439,0-15.426-5.729-15.426-14.485
		c0-9.779,4.215-14.567,15.958-14.567c6.997,0,11.171,1.8,13.462,5.483c0.9,1.514,1.719,3.642,1.719,8.511v2.005h-16.981v6.383
		h2.905v-3.56h14.076C404.306,78.104,401.932,81.336,398.7,82.973 M390.23,61.9h-2.905v5.197h2.905V61.9z"/>
	<path style="fill:#EF4923;" d="M423.21,84.037V64.355h-2.905v19.682h-13.748V56.704h13.339v2.619
		c1.064-1.555,3.764-3.519,8.225-3.519c5.81-0.041,9.043,3.764,9.043,9.329v18.904H423.21z"/>
	<path style="fill:#EF4923;" d="M439.618,81.05c0-1.678,1.391-2.946,3.069-2.946c1.637,0,3.028,1.268,3.028,2.946
		c0,1.759-1.391,2.987-3.028,2.987C441.009,84.037,439.618,82.809,439.618,81.05 M442.646,83.587c1.35,0,2.414-1.064,2.414-2.537
		c0-1.391-1.064-2.455-2.414-2.455c-1.391,0-2.455,1.064-2.455,2.455C440.232,82.523,441.296,83.587,442.646,83.587 M441.991,82.809
		H441.5v-3.478h1.309c0.818,0,1.228,0.286,1.228,0.982c0,0.614-0.409,0.859-0.9,0.941l1.023,1.514h-0.614l-0.9-1.514h-0.614v1.555
		H441.991z M442.646,80.845c0.409,0,0.818,0,0.818-0.573c0-0.409-0.409-0.491-0.737-0.491h-0.737v1.064H442.646z"/>
	<path style="fill:#EF4923;" d="M32.074,60.018L32.074,60.018c-0.082,0-0.123,0-0.205,0l0,0c0,0-0.041,0-0.041,0.041
		C30.846,60.182,30.11,61,30.11,61.941c0,1.064,0.859,1.964,1.923,1.964c0.368,0,0.696-0.082,1.023-0.286
		c0.123-0.041,0.246-0.164,0.368-0.286c0.368-0.327,0.573-0.818,0.573-1.391C33.997,60.877,33.138,60.018,32.074,60.018"/>
	<path style="fill:#EF4923;" d="M25.813,60.264L25.813,60.264c0-0.041-0.082-0.041-0.082-0.041s-0.041-0.041-0.082-0.041
		L25.609,60.1c-0.041,0-0.082,0-0.164-0.041l0,0c-0.164,0-0.246,0-0.368-0.041c-0.082,0-0.123,0-0.205,0
		c-1.064,0-1.923,0.859-1.923,1.923c0,0.164,0,0.327,0.041,0.45c0.205,0.9,0.982,1.514,1.882,1.514c0.737,0,1.391-0.45,1.759-0.982
		c0.123-0.286,0.205-0.614,0.205-0.982C26.836,61.246,26.427,60.55,25.813,60.264"/>
	<path style="fill:#EF4923;" d="M39.071,60.018L39.071,60.018c-0.041,0-0.082,0-0.164,0c-0.041,0-0.041,0-0.041,0l0,0
		c-0.777,0.082-1.432,0.655-1.637,1.391c-0.041,0.164-0.123,0.368-0.123,0.532c0,1.064,0.9,1.964,1.964,1.964
		c0.123,0,0.205,0,0.286,0c0.777-0.123,1.432-0.737,1.637-1.514c0.041-0.164,0.041-0.286,0.041-0.45
		C41.035,60.877,40.176,60.018,39.071,60.018"/>
	<path style="fill:#EF4923;" d="M52.165,87.269c9.657-4.174,16.204-11.743,16.204-20.377c0-13.053-14.894-23.732-33.021-23.732
		c-18.168,0-33.062,10.68-33.062,23.732S17.18,90.584,35.306,90.584c0.491,0,1.023,0,1.596-0.082c0.818,0.041,0.9,0,1.268,0.777
		c0.368,0.818,0.859,1.759,1.105,2.25c0.655,1.35,2.046,4.501,6.792,4.583c3.519-0.123,7.038-0.082,10.557-0.123
		c0.491,0,0.737-0.286,0.737-0.532c0-0.123-0.041-0.246-0.164-0.368c-1.146-0.818-2.128-1.8-2.701-2.946
		c-0.696-1.473-1.759-3.724-2.619-5.483c-0.164-0.327-0.286-0.614-0.286-0.777C51.551,87.597,51.755,87.392,52.165,87.269
		 M48.523,80.804L48.523,80.804c-0.041-0.082-0.082-0.082-0.123-0.205c-0.082-0.123-0.164-0.246-0.205-0.327
		c-2.169-4.624-4.46-9.166-6.547-13.789c-0.041-0.164-0.123-0.286-0.286-0.409c-0.041,0-0.123,0-0.205,0h-1.023h-0.123l0.041,0.123
		l0.041,0.041c0.123,0.205,0.246,0.409,0.368,0.696c0.123,0.327,0.286,0.614,0.45,0.941c0.164,0.327,0.246,0.737,0.327,1.064
		c0.041,0.205,0.041,0.409,0.041,0.614c0,0.777-0.327,1.35-0.859,1.637c-0.205,0.123-0.491,0.205-0.818,0.205
		c-0.205,0-0.368-0.041-0.573-0.082c-0.696-0.205-1.514-0.696-2.291-1.637c-0.409-0.491-0.655-0.859-1.023-1.391
		c-0.246-0.409-0.45-0.777-0.696-1.187c-0.123-0.205-0.205-0.45-0.368-0.614c-0.082-0.246-0.205-0.409-0.532-0.409h-0.9h-0.123l0,0
		l0,0l0.041,0.164c0.082,0.123,0.164,0.286,0.246,0.491c0.164,0.327,0.327,0.655,0.532,0.982c0.368,0.777,0.532,1.514,0.532,2.046
		c0,1.268-0.818,1.841-1.882,1.882c-0.859,0-1.841-0.409-2.578-1.187c-0.286-0.205-0.532-0.491-0.737-0.818
		c-0.123-0.205-0.246-0.368-0.327-0.573c-0.286-0.45-0.532-0.9-0.777-1.35c-0.246-0.409-0.45-0.818-0.737-1.228
		c-0.164-0.409-0.45-0.409-0.737-0.45c-0.205,0-0.45,0-0.655,0h-0.164l0,0l0,0l0.041,0.123l0.041,0.041
		c2.332,4.746,4.706,9.616,7.12,14.526c0.573,1.187,1.187,2.332,1.719,3.519c0.164,0.246,0.205,0.409,0.205,0.573
		c0,0.041-0.041,0.082-0.041,0.164c-0.041,0.082-0.205,0.164-0.409,0.164c-0.041,0-0.082,0-0.082,0
		c-2.455-0.041-4.787-0.409-6.915-1.064c-8.593-2.537-14.69-9.329-14.69-17.227c0-10.107,9.861-18.372,22.096-18.372
		s22.137,8.265,22.178,18.331c0,1.678-0.246,3.355-0.777,4.869c-1.146,3.56-3.601,6.711-7.12,9.043
		c-0.164,0.123-0.286,0.205-0.409,0.205C48.727,80.927,48.646,80.886,48.523,80.804L48.523,80.804"/>
	<polygon style="fill:#EF4923;" points="59.653,97.949 59.653,94.757 58.998,94.757 58.998,94.266 60.88,94.266 60.88,94.757 
		60.184,94.757 60.184,97.949 	"/>
	<polygon style="fill:#EF4923;" points="61.248,97.949 61.248,94.266 62.026,94.266 63.09,97.09 64.113,94.266 64.931,94.266 
		64.931,97.949 64.399,97.949 64.44,94.757 63.253,97.949 62.885,97.949 61.698,94.757 61.739,97.949 	"/>
</g>
</svg>
