<svg width="433" height="55.2" id="Layer_1" xmlns="http://www.w3.org/2000/svg"><style>.st0{fill:#f04923}</style><path class="st0" d="M98.7 41.4c-7.7 0-17-.3-17-12v-.8h14.6v5.3H99v-5c-2.4-.8-5.2-1.6-8-2.6-4.5-1.6-8.7-3.6-8.9-9.8-.2-8.3 5.8-11.7 15.6-11.7 12.8 0 15.7 4.9 15.7 10.6v1.3H98.9v-4.4h-2.7v4.4c1.8.6 4.5 1.3 7.6 2.2 5.2 1.5 10.4 3.6 10.4 10.4.1 9.2-6.6 12.1-15.5 12.1zm44.8-25.9c-1.5-1.5-3.4-2.2-6.1-2.2-4.1-.1-6.5 1.6-7.6 3.3v-2.8h-13.3v35.7h13.4V38.2c1.3 1.8 3.7 3 7.3 3 3.8 0 6.3-1.7 7.8-4.4 1.3-2.4 1.4-5.8 1.4-9.9.2-5.7-.4-9.1-2.9-11.4zm-10.6 17.4H130V21.2h2.9v11.7zm46.1-4.4v-2c0-4.8-.8-6.8-1.7-8.3-2.2-3.6-6.3-5.3-13.2-5.3-11.4 0-15.5 4.7-15.5 14.2 0 8.5 2.9 14.1 15 14.1 2.9 0 6.6-.2 9.9-1.8 3.1-1.6 5.5-4.8 5.5-8.1h-13.7v3.5h-2.9v-6.2l16.6-.1zm-16.6-9.7h2.9v5h-2.9v-5zm49 9.7v-2c0-4.8-.8-6.8-1.7-8.3-2.2-3.6-6.3-5.3-13.2-5.3-11.4 0-15.5 4.7-15.5 14.2 0 8.5 2.9 14.1 15 14.1 2.9 0 6.6-.2 9.9-1.8 3.1-1.6 5.5-4.8 5.5-8.1h-13.7v3.5h-2.9v-6.2l16.6-.1zm-16.6-9.7h2.9v5h-2.9v-5zm35-13v10.1c-1.6-1.7-3.8-2.7-7.2-2.7-3.2 0-5.7 1.1-7.3 3.7-1.4 2.2-1.9 5.7-1.8 10.8.1 4.3.5 8.7 3 11.1 1.9 1.8 3.8 2.2 6 2.2 3.5 0 5.8-1.4 7.3-3.1v2.4h13.4V5.8h-13.4zm0 26.9H227V21.1h2.8v11.6zm63.5 1.3c1.1-2.7 1.3-7.5 1.3-11 0-14.2-3.4-18.3-16.1-18.3S262.4 8.8 262.4 23c0 6.7.4 11.7 3.7 14.6 2.5 2.3 6.1 3.7 11.9 3.7h18.3V34h-3zm-13.4 0h-2.7V12.7h2.7V34zm34.2 6.3v-2.6c-2 2-4.5 3.3-8 3.2-3.2-.1-5.8-1.7-7.1-3.9-.7-1.2-1.4-3-1.4-6.4V13.7h13.6v19h2.8v-19h13.5v26.6h-13.4zm46-11.8v-2c0-4.8-.8-6.8-1.7-8.3-2.2-3.6-6.3-5.3-13.2-5.3-11.4 0-15.5 4.7-15.5 14.2 0 8.5 2.9 14.1 15 14.1 2.9 0 6.6-.2 9.9-1.8 3.1-1.6 5.5-4.8 5.5-8.1h-13.7v3.5h-2.9v-6.2l16.6-.1zm-16.6-9.7h2.9v5h-2.9v-5zm49 9.7v-2c0-4.8-.8-6.8-1.7-8.3-2.2-3.6-6.3-5.3-13.2-5.3-11.4 0-15.5 4.7-15.5 14.2 0 8.5 2.9 14.1 15 14.1 2.9 0 6.6-.2 9.9-1.8 3.1-1.6 5.5-4.8 5.5-8.1h-13.7v3.5h-2.9v-6.2l16.6-.1zm-16.6-9.7h2.9v5h-2.9v-5zm35 21.5V21.2H408v19.1h-13.4V13.7h13v2.6c1.1-1.5 3.7-3.4 8-3.4 5.7-.1 8.8 3.6 8.8 9.1v18.3h-13.5zm16-2.8c0-1.7 1.4-2.9 3-2.9s2.9 1.2 2.9 2.9-1.4 2.9-2.9 2.9c-1.6 0-3-1.3-3-2.9zm3 2.4c1.3 0 2.4-1 2.4-2.4s-1-2.4-2.4-2.4c-1.3 0-2.4 1-2.4 2.4s1 2.4 2.4 2.4zm-.7-.8h-.5v-3.4h1.3c.8 0 1.2.3 1.2 1 0 .6-.4.9-.9.9l1 1.5h-.6l-.9-1.5h-.6v1.5zm.7-1.8c.4 0 .8 0 .8-.5 0-.4-.4-.5-.7-.5h-.8v1h.7zM29.8 17h-.3c-.9.1-1.6.9-1.6 1.9 0 1.1.9 1.9 1.9 1.9.4 0 .7-.1 1-.3.1-.1.2-.2.4-.3.3-.3.6-.8.6-1.4-.1-1-1-1.8-2-1.8zm-6.1.2c-.1-.1-.2-.1-.2-.1s-.1 0-.1-.1c-.1 0-.2-.1-.3-.1h-.2c-1 0-1.9.9-1.9 1.9 0 .1 0 .3.1.4.2.8.9 1.5 1.8 1.5.7 0 1.4-.4 1.7-1 .1-.3.2-.6.2-.9-.1-.7-.5-1.3-1.1-1.6zm12.9-.2h-.2c-.8.1-1.4.6-1.6 1.3-.1.2-.1.4-.1.6 0 1.1.9 1.9 1.9 1.9h.3c.8-.1 1.4-.7 1.6-1.4 0-.1.1-.3.1-.5 0-1.1-.9-1.9-2-1.9z"/><path class="st0" d="M49.4 43.5c9.4-4.1 15.8-11.4 15.8-19.8C65.2 11 50.7.6 33 .6S.8 11 .8 23.7 15.3 46.8 33 46.8h1.5c.8 0 .9 0 1.2.7.4.7.8 1.7 1 2.2.7 1.3 2 4.4 6.6 4.4 3.5-.1 6.8 0 10.3-.1.5 0 .7-.3.7-.5 0-.1-.1-.3-.2-.3-.9-.9-1.9-1.9-2.5-3-.7-1.4-1.7-3.6-2.5-5.3-.2-.3-.3-.6-.3-.7 0-.4.2-.5.6-.7zm-2.9-6.3c-.2.1-.3.2-.4.2s-.2-.1-.3-.1c0-.1-.1-.1-.1-.2-.1-.1-.1-.3-.2-.3-2.1-4.6-4.3-9-6.3-13.5-.1-.2-.1-.3-.3-.4h-1.3v.1c.1.2.2.5.3.7.1.3.3.6.4.9.2.4.3.7.3 1.1 0 .2.1.4.1.6 0 .8-.3 1.3-.8 1.6-.2.1-.5.2-.8.2-.2 0-.4 0-.5-.1-.7-.2-1.5-.7-2.2-1.6-.4-.5-.6-.8-1-1.4-.2-.4-.4-.8-.7-1.1l-.3-.6c-.1-.2-.2-.4-.6-.4h-1v.1c.1.2.2.3.2.5.2.3.3.7.5 1 .4.8.5 1.5.5 2 0 1.2-.8 1.8-1.9 1.8-.8 0-1.8-.4-2.5-1.1-.3-.2-.5-.5-.7-.9-.1-.2-.2-.4-.3-.5-.3-.4-.5-.9-.8-1.3-.2-.4-.5-.8-.7-1.2-.2-.4-.5-.4-.8-.4h-.7v.1l6.9 14.1c.6 1.1 1.1 2.3 1.7 3.4.1.2.2.4.2.5v.2c-.1.1-.2.1-.4.1h-.1c-2.4 0-4.6-.4-6.7-1-8.4-2.5-14.3-9.1-14.3-16.8 0-9.8 9.7-17.9 21.6-17.9s21.6 8 21.6 17.9c0 1.6-.3 3.2-.7 4.7-1 3.6-3.4 6.7-6.9 9zm10.2 16.7v-3.1H56v-.5h1.8v.5h-.6v3.1h-.5zm1.5 0v-3.6h.8l1 2.8 1-2.8h.8v3.6h-.5v-3.1l-1.2 3.1h-.4l-1.2-3.1v3.1h-.3z"/></svg>