<?xml version="1.0" encoding="utf-8" ?>
<svg xmlns="http://www.w3.org/2000/svg" xmlns:xlink="http://www.w3.org/1999/xlink" width="111" height="30">
	<path fill="rgb(255,255,255)" stroke="none" transform="translate(0 0.00421143)" d="M0 27.6262C0.177534 27.1435 0.362468 26.6634 0.531346 26.1776C1.72189 22.7533 2.90807 19.3274 4.09762 15.9027C5.33038 12.3535 6.56446 8.80474 7.79973 5.25635C8.37046 3.61705 8.95407 1.98225 9.50999 0.337936C9.60388 0.0602707 9.7384 -0.000720483 10.0053 6.38915e-06C13.1211 0.00806806 16.2369 0.0050945 19.3526 0.00522665C19.8124 0.00522665 19.815 0.00648216 19.6674 0.430447C18.1258 4.86153 16.5827 9.29214 15.0412 13.7233C13.7704 17.3762 12.5098 21.0326 11.2272 24.6814C10.6469 26.3321 9.46889 27.3269 7.75381 27.6695C7.444 27.7314 7.12098 27.749 6.80397 27.7502C4.536 27.7583 2.26797 27.7569 0 27.7584L0 27.6262Z"/>
	<path fill="rgb(255,255,255)" stroke="none" transform="translate(55.2872 22.1829)" d="M1.00567 7.76037C1.00092 7.75045 0.998802 7.73691 0.991005 7.73116C0.848754 7.62781 0.573104 7.78402 0.528638 7.58711C0.467125 7.31473 0.505248 7.01902 0.506966 6.73336C0.507627 6.61904 0.596163 6.62836 0.674061 6.63893C0.771979 6.65222 0.868839 6.67435 0.966955 6.68493C1.41908 6.7333 1.67643 6.57993 1.85211 6.16594C2.01888 5.77297 2.05449 5.4096 1.87927 4.97777C1.26481 3.46363 0.704057 1.92761 0.123355 0.399794C0.0815322 0.289904 0.0429464 0.178758 0 0.0602782C0.0666661 0.0489786 0.0983804 0.0387364 0.129963 0.0390007C0.524938 0.043428 0.9953 -0.0806689 1.29315 0.0921945C1.5795 0.25845 1.59041 0.769573 1.71958 1.12964C2.06751 2.09975 2.4009 3.07508 2.76661 4.12462C2.94487 3.60748 3.10192 3.15728 3.25514 2.70583C3.52656 1.9062 3.80076 1.1075 4.06181 0.304573C4.12504 0.110234 4.20954 0.0177231 4.43009 0.0319963C4.7551 0.0529434 5.08248 0.0374148 5.4507 0.0374148C5.17478 0.783648 4.91294 1.49129 4.65143 2.19893C4.18001 3.47479 3.70178 4.74814 3.23988 6.02744C2.93503 6.8718 2.53589 7.60878 1.53424 7.76037L1.00567 7.76037Z"/>
	<path fill="rgb(255,255,255)" stroke="none" transform="translate(71.4305 22.1841)" d="M0.91771 7.75916C0.405854 7.73286 0.441731 7.38132 0.45924 7.01742C0.478269 6.62233 0.463667 6.62161 0.870403 6.67903C1.35887 6.74802 1.62897 6.57912 1.82361 6.11987C1.98496 5.73912 1.99415 5.38969 1.83452 4.98885C1.22203 3.45106 0.651178 1.89661 0.0517117 0.353457C-0.0505008 0.0903954 -0.0135669 0.00554963 0.274769 0.0329725C0.611204 0.065021 1.0295 -0.0967411 1.26604 0.0972016C1.48533 0.276937 1.52035 0.685175 1.62903 0.995483C1.98377 2.00854 2.33501 3.0228 2.71901 4.12685C2.90811 3.57747 3.06926 3.11372 3.2273 2.64892C3.49555 1.86 3.76671 1.07194 4.02518 0.279779C4.08531 0.0953514 4.17113 0.0169813 4.37245 0.0315849C4.63515 0.0505496 4.90069 0.0461223 5.16412 0.0329725C5.36491 0.0229946 5.3846 0.100836 5.32243 0.263986C4.52554 2.3544 3.80933 4.47509 2.96711 6.54839C2.70706 7.1885 2.2842 7.64623 1.54506 7.70874C1.53283 7.7098 1.52319 7.74165 1.51235 7.75916L0.91771 7.75916Z"/>
	<path fill="rgb(255,255,255)" stroke="none" transform="translate(108.901 1.51862)" d="M2.09943 2.12504C1.88768 2.15213 1.82134 2.06299 1.82986 1.84969C1.84671 1.42804 1.83482 1.0052 1.77701 0.570459C1.6146 1.00592 1.45656 1.44323 1.28662 1.87586C1.24731 1.9761 1.24566 2.11956 1.06799 2.11995C0.891847 2.12035 0.88894 1.98304 0.8489 1.87982C0.687488 1.46372 0.533211 1.04478 0.307181 0.63231C0.307181 1.03632 0.312136 1.44053 0.303679 1.84434C0.301565 1.94504 0.380586 2.10799 0.171404 2.11539C-0.0591849 2.12339 0.0146169 1.9463 0.0131633 1.83356C0.00642401 1.32812 0.00543294 0.822486 0.0139561 0.317177C0.0158061 0.206957 -0.0684349 0.0402391 0.156406 0.0165166C0.349467 -0.00390187 0.449631 0.061847 0.51491 0.251825C0.677709 0.726274 0.8637 1.19286 1.06601 1.73075C1.25246 1.23535 1.43304 0.815878 1.56564 0.381605C1.65398 0.0923757 1.8 -0.0399151 2.09943 0.0105034L2.09943 2.12504Z"/>
	<path fill="rgb(255,255,255)" stroke="none" transform="translate(19.8386 0)" d="M7.42425 4.18605C6.71312 6.23306 6.03113 8.19608 5.34386 10.1741L9.50662 10.1741C8.81585 8.18768 8.13181 6.22077 7.42425 4.18605M14.899 15.8687C13.799 15.8687 12.7317 15.864 11.6645 15.8732C11.4818 15.8748 11.4534 15.7713 11.4088 15.6419C11.1049 14.7596 10.7905 13.8808 10.4942 12.9959C10.4254 12.7906 10.3424 12.7023 10.106 12.7038C8.31166 12.7157 6.51716 12.7139 4.72266 12.7053C4.52193 12.7043 4.43016 12.7674 4.36865 12.9544C4.1734 13.5486 3.96435 14.1384 3.75583 14.7282C3.47219 15.5302 2.99991 15.8639 2.14382 15.8681C1.52738 15.8711 0.910268 15.8534 0.294549 15.8753C0.000530845 15.8859 -0.0544406 15.8278 0.0465166 15.5411C0.903067 13.1092 1.74667 10.6727 2.59357 8.23744C3.50899 5.60511 4.42705 2.9737 5.33349 0.338323C5.4166 0.0966711 5.50864 -0.00509104 5.78773 0.000195299C6.89925 0.0214068 8.01143 0.0126843 9.12328 0.0052834C9.30881 0.00409398 9.41326 0.0381909 9.48211 0.237288C11.2667 5.39279 13.059 10.5457 14.8496 15.699C14.8638 15.7397 14.8738 15.7816 14.899 15.8687"/>
	<path fill="rgb(255,255,255)" stroke="none" transform="translate(52.3901 3.61414)" d="M9.39501 6.27844C9.39435 4.56844 8.01154 3.16881 6.30333 3.14925C4.59776 3.12969 3.17002 4.54987 3.16771 6.26839C3.16533 7.99954 4.55825 9.40815 6.27657 9.41238C7.99205 9.41648 9.39567 8.00588 9.39501 6.27844M10.0177 1.22516C10.0608 0.897536 9.91955 0.558615 10.0878 0.396588C10.2546 0.235817 10.5901 0.353042 10.8514 0.348483C11.3135 0.340355 11.7765 0.360707 12.2379 0.340421C12.492 0.329254 12.5664 0.396787 12.5651 0.661104C12.5534 2.84066 12.5585 5.02029 12.5585 7.19985C12.5585 8.78509 12.5524 10.3703 12.5649 11.9553C12.5668 12.204 12.5042 12.2683 12.2577 12.2609C11.6198 12.242 10.9805 12.2385 10.3429 12.2621C10.0658 12.2723 10.0066 12.1706 10.0304 11.9283C10.0473 11.7572 10.0337 11.5832 10.0337 11.3455C8.22931 12.566 6.32394 12.8924 4.29211 12.2387C2.95133 11.8073 1.88302 10.9828 1.08831 9.81857C-0.493241 7.50176 -0.337048 4.36802 1.46558 2.24615C2.53693 0.985157 3.90051 0.234364 5.54192 0.0453109C7.1608 -0.141099 8.65435 0.246787 10.0177 1.22516"/>
	<path fill="rgb(255,255,255)" stroke="none" transform="translate(94.4853 3.62659)" d="M9.24123 11.8162C10.4333 11.1878 11.3239 10.2552 11.9324 9.03118C11.8406 9.00019 11.771 8.9696 11.6984 8.95321C10.7876 8.74889 9.87426 8.55495 8.9667 8.33742C8.75805 8.2874 8.6339 8.32546 8.48352 8.47532C7.02698 9.92748 4.62429 9.60667 3.59014 7.83673C3.44954 7.59601 3.47075 7.53449 3.76325 7.5366C4.90601 7.54493 6.04885 7.54378 7.1917 7.54263C7.59015 7.54223 7.98861 7.54182 8.38706 7.54182C8.70989 7.54182 9.03272 7.54139 9.35556 7.54097C10.2878 7.53973 11.22 7.53849 12.1521 7.54757C12.3905 7.54988 12.467 7.48281 12.5 7.24394C12.5787 6.67235 12.6006 6.09964 12.5289 5.53215C12.1106 2.22356 9.3708 -0.0997852 6.02778 0.00329848C2.31014 0.118012 -0.51719 3.55916 0.0798317 7.24255C0.772723 11.5172 5.40922 13.8361 9.24123 11.8162ZM8.423 3.99495C8.71021 4.26918 8.94992 4.57744 9.12897 4.9981L4.91791 4.9981C4.79913 4.9981 4.68028 4.99693 4.56143 4.99576C4.28391 4.99303 4.00636 4.99029 3.72949 5.00246C3.4463 5.01495 3.4724 4.91068 3.57712 4.72162C4.54058 2.98281 6.97842 2.61561 8.423 3.99495Z" fill-rule="evenodd"/>
	<path fill="rgb(255,255,255)" stroke="none" transform="translate(67.3741 3.61664)" d="M2.52975 1.22801C3.30351 0.681598 4.10304 0.308382 4.98397 0.131422C8.80138 -0.635362 12.1382 2.05459 12.51 5.56017C12.6334 6.72349 12.5459 7.8923 12.5613 9.05847C12.5743 10.0384 12.5579 11.0187 12.5688 11.9987C12.5712 12.2034 12.5149 12.2593 12.3114 12.2567C11.4417 12.2457 10.5715 12.2423 9.70193 12.2584C9.45681 12.2629 9.39252 12.2031 9.39411 11.9533C9.40587 10.0812 9.40098 8.20909 9.40032 6.33693C9.39979 4.73662 8.21889 3.37909 6.71854 3.18514C4.99646 2.96252 3.53555 4.13827 3.22554 5.6201C3.17784 5.8484 3.16515 6.07757 3.16515 6.30891C3.16502 8.181 3.16079 10.0532 3.17031 11.9252C3.17156 12.1722 3.12604 12.2658 2.85151 12.2594C1.99318 12.2395 1.13392 12.2453 0.275189 12.2569C0.0625715 12.2597 -0.000394571 12.2052 1.85756e-06 11.9859C0.00687329 8.19765 0.00634472 4.4094 0.00112507 0.621069C0.000860786 0.417809 0.0375965 0.332567 0.267129 0.337986C0.938415 0.353911 1.61056 0.352589 2.28191 0.338382C2.49241 0.333955 2.55062 0.400232 2.53338 0.599395C2.51673 0.791488 2.52975 0.986157 2.52975 1.22801"/>
	<path fill="rgb(255,255,255)" stroke="none" transform="translate(81.4939 3.60864)" d="M6.36854 0C8.70839 0.0868943 10.5355 1.14033 11.7678 3.20524C11.9639 3.53385 11.9575 3.53828 11.5937 3.62022C10.7151 3.81806 9.83425 4.00665 8.9594 4.21976C8.76132 4.26806 8.64404 4.23833 8.50166 4.09513C7.55439 3.14266 6.16821 2.89817 4.97774 3.45932C3.7531 4.03645 3.07455 5.2461 3.19685 6.6337C3.30719 7.88485 4.23397 8.96637 5.5077 9.30145C6.64597 9.60079 7.63936 9.29835 8.48111 8.50097C8.64728 8.3435 8.7777 8.30808 8.99144 8.35896C9.88896 8.57227 10.7897 8.77222 11.6921 8.96366C11.924 9.01289 11.9235 9.09271 11.8235 9.27991C10.6564 11.4622 8.20136 12.7856 5.75936 12.5398C2.91618 12.2535 0.781077 10.3633 0.144677 7.56879C-0.628623 4.17284 1.78886 0.624978 5.22887 0.0953524C5.58969 0.0398458 5.95104 0.0342952 6.36854 0"/>
	<path fill="rgb(255,255,255)" stroke="none" transform="translate(36.2908 0.00238037)" d="M3.1676 7.93358C3.1676 10.4757 3.1643 13.0179 3.17302 15.5599C3.17381 15.7972 3.12994 15.8792 2.8718 15.8733C2.03593 15.8546 1.19907 15.8531 0.363331 15.8737C0.0764488 15.8808 -0.000656514 15.8121 4.20009e-06 15.5162C0.0106417 10.8722 0.00747027 6.22807 0.00747027 1.58408C0.00747027 1.14386 0.0222042 0.702983 0.00158991 0.263754C-0.00964223 0.0232918 0.0963363 0.00135347 0.291379 0.00313762C1.14958 0.0110671 2.00811 0.0166178 2.86605 0.000230127C3.11296 -0.00439542 3.17513 0.0594372 3.17374 0.307301C3.16271 2.29906 3.1676 4.29102 3.1676 6.28292L3.1676 7.93358Z"/>
	<path fill="rgb(255,255,255)" stroke="none" transform="translate(41.8234 0.00152588)" d="M0.00815056 7.91859C0.00815056 5.39747 0.0142952 2.87621 2.37793e-05 0.355092C-0.00162801 0.0543648 0.0824148 -0.00596563 0.36454 0.000444064C1.21171 0.0198053 2.05973 0.015378 2.90717 0.00196389C3.12784 -0.00147224 3.17641 0.0657965 3.17614 0.276854C3.17039 5.38531 3.1702 10.4937 3.1766 15.6021C3.17687 15.8211 3.11549 15.8751 2.9028 15.8721C2.04434 15.8603 1.18534 15.8566 0.327077 15.8736C0.0670202 15.8788 0.000948779 15.8079 0.00200592 15.5482C0.012247 13.005 0.00815056 10.4618 0.00815056 7.91859"/>
	<path fill="rgb(255,255,255)" stroke="none" transform="translate(47.3665 3.95374)" d="M0.0063718 5.93431C0.0063718 4.064 0.0118557 2.1937 2.89452e-05 0.323454C-0.00162284 0.0634318 0.0669593 -0.00482813 0.324506 0.000259975C1.17121 0.0170441 2.01864 0.0147313 2.86542 0.00125116C3.09898 -0.00244928 3.15818 0.0695111 3.15778 0.297419C3.15117 4.07108 3.15144 7.84467 3.15745 11.6183C3.15785 11.8353 3.1229 11.9256 2.87612 11.9212C2.00735 11.9053 1.13798 11.9068 0.269204 11.9206C0.0459486 11.9241 0.00102002 11.8526 0.00187895 11.6442C0.00954323 9.74088 0.0063718 7.83759 0.0063718 5.93431"/>
	<path fill="rgb(255,255,255)" stroke="none" transform="translate(64.5748 19.9335)" d="M3.14133 7.97182C2.56373 7.97057 2.00179 7.88598 1.47342 7.64136C0.545445 7.21178 0.09312 6.45953 0.0024039 5.46246C-0.011339 5.31087 0.0312111 5.23515 0.198504 5.24949C0.329524 5.26079 0.462393 5.25134 0.59447 5.2518C0.814488 5.25246 1.05651 5.19603 1.24891 5.26944C1.48036 5.35779 1.34484 5.65257 1.42829 5.84519C1.57418 6.1818 1.77946 6.46171 2.11035 6.61838C2.78936 6.93979 3.49184 6.96272 4.18935 6.68916C4.6274 6.51735 4.87227 6.11162 4.85106 5.68045C4.82833 5.21982 4.61597 4.95471 4.11548 4.78032C3.3992 4.53081 2.65312 4.38874 1.92508 4.18178C0.750861 3.84788 0.221959 3.15226 0.300716 2.03737C0.352583 1.30303 0.737977 0.759661 1.36949 0.439111C2.55719 -0.163929 3.76815 -0.152828 4.92968 0.515697C5.55544 0.875829 5.88904 1.46347 5.97685 2.18664C6.00222 2.39545 5.9524 2.50026 5.72029 2.47105C5.6011 2.45605 5.47854 2.4688 5.35749 2.46834C5.14844 2.46755 4.92354 2.51486 4.73444 2.45281C4.50141 2.37636 4.61974 2.08746 4.52195 1.91037C4.41928 1.72435 4.31925 1.53874 4.13412 1.42904C3.48067 1.04175 2.79174 1.0066 2.11814 1.33495C1.47461 1.64869 1.46324 2.47409 2.06621 2.85973C2.35944 3.04719 2.69785 3.10667 3.02398 3.19779C3.53115 3.33946 4.04254 3.46627 4.55162 3.6014C5.47365 3.84609 6.08421 4.49797 6.18035 5.3375C6.29214 6.31356 5.84616 7.13255 4.96047 7.58698C4.38823 7.88057 3.77343 7.96733 3.14133 7.97182"/>
	<path fill="rgb(255,255,255)" stroke="none" transform="translate(92.9435 22.0731)" d="M1.20377 0.815383C2.4144 -0.292371 3.74713 -0.266864 4.42172 0.866264C4.75835 0.493973 5.11097 0.150295 5.62871 0.0527615C6.05817 -0.0281195 6.48374 -0.0199918 6.90144 0.104898C7.54319 0.296726 7.8937 0.746462 7.94372 1.40256C8.04672 2.75402 7.96414 4.10884 7.9903 5.46182C7.99347 5.6253 7.92218 5.67988 7.77226 5.66448C7.76136 5.66329 7.7502 5.66501 7.73923 5.66435C7.42288 5.64538 7.01733 5.79644 6.81469 5.606C6.62672 5.4293 6.76699 5.02278 6.75952 4.71776C6.7358 3.74996 6.80894 2.78012 6.7134 1.8143C6.66431 1.31844 6.46048 1.08281 6.0735 1.0047C5.52861 0.894612 5.05732 1.06615 4.82594 1.45675C4.65719 1.74181 4.61867 2.05523 4.61881 2.37803C4.61914 3.36889 4.61147 4.35981 4.62422 5.35047C4.62726 5.59067 4.57269 5.69237 4.31547 5.66878C4.02178 5.64188 3.63831 5.75726 3.45357 5.61016C3.25787 5.45422 3.3949 5.0551 3.39146 4.76303C3.38208 3.97047 3.38915 3.17772 3.3875 2.3851C3.3871 2.22016 3.39232 2.05298 3.36847 1.89063C3.31482 1.52712 3.25397 1.15391 2.82067 1.03761C2.36412 0.915163 1.9449 0.983489 1.61077 1.34481C1.34345 1.63391 1.24639 1.98644 1.24791 2.37585C1.25194 3.36664 1.24216 4.35756 1.25438 5.34829C1.25729 5.58525 1.20846 5.69435 0.947943 5.66911C0.718873 5.64684 0.48498 5.6508 0.255184 5.66838C0.0412446 5.68477 0.000544576 5.59582 0.00133743 5.40129C0.00801065 3.739 0.00953029 2.07657 1.60045e-05 0.414215C-0.00123935 0.190074 0.0711749 0.117123 0.28115 0.145735C0.346032 0.154656 0.413029 0.147189 0.4791 0.147189C1.14781 0.147123 1.14781 0.147123 1.20377 0.815383"/>
	<path fill="rgb(255,255,255)" stroke="none" transform="translate(44.6768 20.1417)" d="M2.74825 2.92001C2.24459 2.89894 1.82814 3.11178 1.57932 3.5557C1.11146 4.39021 1.07479 5.26391 1.56035 6.0985C2.07631 6.98515 3.35069 6.99724 3.89776 6.12876C4.39964 5.33191 4.39905 4.47843 4.00017 3.64405C3.76364 3.14918 3.32631 2.90687 2.74825 2.92001M4.22435 2.68107C4.22435 1.90068 4.23691 1.11222 4.21748 0.324486C4.21081 0.0544863 4.29835 -0.0189939 4.55035 0.00393562C4.76872 0.0237594 4.99118 0.0206537 5.21007 0.00439818C5.41549 -0.0108001 5.46993 0.0643321 5.46755 0.265081C5.45725 1.13455 5.46313 2.00429 5.46313 2.87389C5.46313 4.34898 5.45883 5.82407 5.46775 7.29909C5.46907 7.52072 5.42124 7.63305 5.18034 7.59757C5.10489 7.58647 5.02646 7.59592 4.94942 7.59592C4.30536 7.59592 4.30536 7.59592 4.26538 6.91186C3.86089 7.53446 3.26374 7.71942 2.61208 7.73753C1.96854 7.7555 1.3663 7.58468 0.880016 7.13534C0.189239 6.49709 0.0086662 5.65636 0.000209054 4.76568C-0.00540702 4.1775 0.101497 3.60592 0.397629 3.08429C1.15296 1.75378 3.03408 1.52013 4.09921 2.62325C4.12505 2.65001 4.13621 2.70777 4.22435 2.68107"/>
	<path fill="rgb(255,255,255)" stroke="none" transform="translate(25.5571 22.0596)" d="M1.26742 2.91939C1.26121 3.28719 1.32358 3.64481 1.47641 3.97805C1.72754 4.52565 2.15536 4.83708 2.76705 4.84025C3.36354 4.84336 3.79307 4.55175 4.05048 4.01935C4.35626 3.38677 4.38011 2.72809 4.17992 2.06188C3.97998 1.39653 3.50077 1.01598 2.87131 1.00316C2.16507 0.988689 1.65037 1.34069 1.41919 2.01259C1.31883 2.30433 1.27198 2.60928 1.26742 2.91939M4.27466 5.02594C3.66667 6.07402 1.37974 6.20466 0.523524 4.73631C-0.142079 3.59492 -0.171349 2.37398 0.426267 1.20292C1.14625 -0.207809 3.05921 -0.407038 4.20265 0.760914C4.21639 0.747962 4.24156 0.735473 4.24222 0.721795C4.27017 0.151993 4.26984 0.151927 4.844 0.151927C5.4882 0.151927 5.4882 0.151927 5.4882 0.805716C5.4882 2.31351 5.47782 3.82144 5.49685 5.32904C5.50068 5.6375 5.40263 5.72334 5.1256 5.67867C5.09342 5.67345 5.05966 5.6788 5.02662 5.67781C4.80773 5.6712 4.55124 5.73246 4.38038 5.63836C4.20443 5.54149 4.37212 5.25543 4.27466 5.02594"/>
	<path fill="rgb(255,255,255)" stroke="none" transform="translate(86.584 22.0643)" d="M2.63881 2.41935C3.02322 2.41935 3.40802 2.40957 3.79189 2.42332C3.99757 2.43065 4.02942 2.34924 3.99843 2.17043C3.87963 1.48367 3.32886 0.997853 2.65751 0.998448C1.93773 0.999042 1.38881 1.47911 1.26241 2.19138C1.22885 2.38043 1.28005 2.42404 1.45277 2.42127C1.848 2.41499 2.24351 2.41928 2.63881 2.41935M5.16638 3.92821C5.03939 4.79754 4.37398 5.47935 3.43299 5.72147C2.23333 6.03006 1.0196 5.60021 0.440419 4.66162C-0.261722 3.52373 -0.107313 1.74937 0.782273 0.812831C1.49366 0.0640204 2.37836 -0.150539 3.34987 0.0997693C4.32819 0.351928 4.905 1.04893 5.179 2.00259C5.27024 2.32003 5.30195 2.64845 5.29105 2.98136C5.28438 3.18613 5.20866 3.25288 4.99466 3.25063C3.88307 3.23873 2.77135 3.24508 1.65977 3.24514C1.18696 3.24514 1.17923 3.24706 1.29644 3.71867C1.42713 4.24459 1.72273 4.63882 2.26974 4.77613C2.80981 4.91166 3.32464 4.86389 3.72899 4.42783C3.86635 4.27968 3.94161 3.9808 4.08624 3.95113C4.43239 3.8801 4.80298 3.92821 5.16638 3.92821"/>
	<path fill="rgb(255,255,255)" stroke="none" transform="translate(102.025 22.0591)" d="M4.06317 1.73037C3.95317 1.73037 3.84111 1.71696 3.73354 1.73328C3.52555 1.76486 3.41363 1.68993 3.35436 1.48449C3.29945 1.29425 3.14551 1.17716 2.96335 1.10929C2.55741 0.958036 2.14426 0.957177 1.73521 1.08834C1.5403 1.15086 1.37869 1.26768 1.35742 1.49903C1.33541 1.73771 1.45817 1.89286 1.65533 2.0044C2.00683 2.2033 2.40154 2.25405 2.78667 2.3387C3.22578 2.4353 3.66906 2.5179 4.07619 2.72308C4.99161 3.18438 5.20423 4.34123 4.49482 5.08561C3.89132 5.71892 3.09595 5.83548 2.27878 5.81222C1.56184 5.7918 0.882824 5.62958 0.389072 5.03658C0.162579 4.76467 0.0634713 4.44636 0.0069802 4.10473C-0.0231484 3.92202 0.0438481 3.86566 0.215898 3.87656C0.358414 3.88548 0.50212 3.88284 0.6449 3.87735C0.972549 3.86473 1.29795 3.81061 1.35167 4.30152C1.3742 4.50755 1.59607 4.62914 1.79606 4.71015C2.29034 4.9103 2.78641 4.87865 3.27527 4.69766C3.50745 4.61176 3.66265 4.43804 3.67084 4.17934C3.67837 3.93887 3.55357 3.76528 3.34709 3.64383C3.02744 3.45597 2.66755 3.40125 2.31459 3.32427C1.90726 3.23539 1.49663 3.15887 1.10773 3.00286C0.517713 2.7661 0.151082 2.36282 0.11917 1.69687C0.0855392 0.997485 0.432547 0.537441 1.04278 0.2833C1.92021 -0.0822502 2.81845 -0.103065 3.70262 0.273587C4.20847 0.489071 4.5188 0.888322 4.6707 1.41491C4.73519 1.63832 4.71424 1.77815 4.42577 1.73341C4.30757 1.71517 4.18422 1.73037 4.06317 1.73037"/>
	<path fill="rgb(255,255,255)" stroke="none" transform="translate(77.3013 22.0562)" d="M4.04235 1.73333C3.93221 1.73333 3.82094 1.72335 3.71226 1.73558C3.5227 1.75685 3.41242 1.70214 3.3562 1.50047C3.30466 1.31505 3.15772 1.1891 2.97186 1.11793C2.55396 0.958154 2.13117 0.960798 1.71161 1.09712C1.51439 1.16122 1.35628 1.29417 1.34333 1.51904C1.33084 1.7365 1.44971 1.8939 1.6359 1.99976C2.06635 2.24452 2.55627 2.28344 3.02439 2.39545C3.35567 2.47474 3.68999 2.54366 3.99967 2.6891C5.08852 3.20056 5.22384 4.57718 4.25933 5.30412C3.39762 5.95368 1.67944 6.00159 0.779677 5.40133C0.331052 5.10205 0.0884375 4.67749 0.0085572 4.14959C-0.0199857 3.96086 0.0145697 3.85216 0.240336 3.87826C0.381596 3.89452 0.527878 3.89492 0.669073 3.87853C1.01251 3.83881 1.27039 3.8737 1.34769 4.30269C1.39255 4.55141 1.64832 4.66996 1.88314 4.74998C2.33929 4.9054 2.79525 4.87104 3.24163 4.71245C3.4711 4.63097 3.6409 4.48058 3.65854 4.21269C3.67684 3.93707 3.53961 3.75152 3.30962 3.6265C2.99611 3.45602 2.64705 3.40051 2.30401 3.32571C1.8431 3.22507 1.3769 3.1432 0.946705 2.93432C0.426261 2.68163 0.143277 2.28185 0.11698 1.69097C0.0899572 1.08318 0.343605 0.62637 0.869996 0.370313C1.84019 -0.101625 2.83932 -0.135392 3.82352 0.343617C4.2734 0.562604 4.53425 0.950093 4.66811 1.4295C4.7281 1.64439 4.70696 1.76954 4.43838 1.73617C4.30822 1.71998 4.17449 1.73333 4.04235 1.73333"/>
	<path fill="rgb(255,255,255)" stroke="none" transform="translate(32.4584 22.184)" d="M3.60851 4.84844C2.97838 5.67232 2.18427 5.83117 1.28088 5.60069C0.469058 5.39353 0.0428973 4.81137 0.0154776 3.78133C-0.0157741 2.60472 0.0110509 1.42666 0.00470801 0.249259C0.00365086 0.0662858 0.0800294 0.0266382 0.24197 0.033973C0.559047 0.04818 0.969681 -0.0691107 1.16889 0.0875633C1.38131 0.254678 1.2308 0.683929 1.23483 0.997805C1.2454 1.82294 1.23681 2.6484 1.23886 3.47373C1.24077 4.25981 1.54252 4.65886 2.17218 4.71516C2.91826 4.78197 3.45298 4.37974 3.57005 3.63173C3.67603 2.95468 3.59972 2.26977 3.61452 1.58849C3.62384 1.15957 3.62919 0.729656 3.61095 0.301264C3.60137 0.076462 3.68026 0.0149422 3.89024 0.0334444C4.19463 0.0602725 4.5896 -0.09019 4.78266 0.0903386C4.98055 0.275427 4.84219 0.674479 4.84371 0.978907C4.85091 2.39849 4.8418 3.81814 4.85197 5.23765C4.85369 5.47455 4.8048 5.59593 4.5458 5.55536C4.47054 5.5436 4.39198 5.55358 4.31494 5.55358C3.65046 5.55358 3.65046 5.55358 3.60851 4.84844"/>
	<path fill="rgb(255,255,255)" stroke="none" transform="translate(38.6617 22.0605)" d="M1.21069 0.885713C1.3057 0.890074 1.32064 0.810713 1.35935 0.764589C2.03394 -0.0387368 3.21411 -0.238164 4.10832 0.305536C4.65169 0.635933 4.85896 1.15717 4.86649 1.75723C4.88175 2.97877 4.86642 4.20065 4.87554 5.42232C4.87706 5.62869 4.81172 5.69258 4.61238 5.68056C4.37115 5.66596 4.12755 5.66516 3.88652 5.68069C3.68091 5.69404 3.62613 5.61785 3.62805 5.41776C3.63743 4.4493 3.63228 3.48071 3.63228 2.51206C3.63228 2.413 3.63333 2.31395 3.63208 2.2149C3.62283 1.46212 3.33971 1.0595 2.7828 1.00657C2.03242 0.935338 1.47346 1.32501 1.31291 2.02842C1.23607 2.36529 1.26084 2.70692 1.25992 3.0471C1.25767 3.82855 1.25437 4.61007 1.26256 5.39146C1.26461 5.58831 1.23864 5.70554 0.998737 5.68062C0.69461 5.64904 0.299305 5.80426 0.10565 5.62148C-0.0906484 5.4362 0.0470444 5.03827 0.0455247 4.73437C0.0384551 3.32562 0.0528587 1.91668 0.0340944 0.508069C0.029998 0.204303 0.120648 0.12177 0.402442 0.156395C0.650937 0.186924 0.958632 0.0622985 1.13854 0.206814C1.3067 0.341814 1.14872 0.657343 1.21069 0.885713"/>
	<path fill="rgb(255,255,255)" stroke="none" transform="translate(19.7739 20.1397)" d="M0.00651245 3.78421C0.00651245 2.61817 0.0110053 1.452 0.00241602 0.286034C0.000830303 0.0761657 0.0497892 -0.0133717 0.276348 0.00552696C0.516716 0.0256151 0.761841 0.028853 1.00148 0.00519657C1.28341 -0.0226228 1.37142 0.0564741 1.36884 0.358853C1.35272 2.26187 1.36798 4.16515 1.35292 6.0681C1.3506 6.36401 1.4287 6.432 1.71651 6.42705C2.78316 6.40868 3.85035 6.42692 4.91714 6.4141C5.14892 6.41132 5.22589 6.47244 5.20567 6.70471C5.1811 6.98793 5.29395 7.35923 5.15222 7.53546C5.00165 7.72266 4.61572 7.59374 4.3334 7.59506C3.01349 7.60141 1.69338 7.58641 0.373737 7.60617C0.0555375 7.61092 -0.00366255 7.50606 0.000169588 7.2163C0.0155642 6.07247 0.00651245 4.92824 0.00651245 3.78421"/>
	<path fill="rgb(255,255,255)" stroke="none" transform="translate(82.7405 20.5625)" d="M2.15293 0.873146C2.18557 1.09332 2.02911 1.45213 2.21384 1.6098C2.36905 1.74229 2.71645 1.66577 2.97743 1.65288C3.18318 1.64271 3.23584 1.71156 3.23723 1.91251C3.24211 2.57495 3.25057 2.57489 2.59977 2.57495C2.15299 2.57495 2.15299 2.57495 2.15299 3.02608C2.15293 3.85108 2.15233 4.67614 2.15319 5.50114C2.15385 6.14581 2.26505 6.27103 2.90059 6.2253C3.17968 6.20515 3.24925 6.2676 3.23954 6.54691C3.21754 7.18028 3.23366 7.18081 2.61239 7.21048C1.29367 7.27332 0.914218 6.90942 0.914152 5.58149C0.914152 4.66854 0.90728 3.75539 0.919239 2.84251C0.922081 2.62669 0.86255 2.56762 0.646695 2.56934C-0.0127649 2.57482 -0.00496848 2.56504 0.00124224 1.91621C0.00309224 1.7185 0.0541655 1.65361 0.260242 1.65235C0.914218 1.64852 0.914152 1.63934 0.914152 0.982837C0.914218 0.72982 0.924063 0.476273 0.910914 0.223983C0.901598 0.0446435 0.973022 -0.00432128 1.14064 0.00294745C1.3931 0.0139166 1.64735 0.0188726 1.89915 0.00169194C2.10635 -0.012449 2.17354 0.0609651 2.1563 0.262903C2.1405 0.44852 2.15293 0.636582 2.15293 0.873146"/>
	<path fill="rgb(255,255,255)" stroke="none" transform="translate(51.511 22.0727)" d="M1.22513 1.05354C1.65301 0.367109 2.19446 -0.0361066 2.99822 0.00254978C3.20304 0.0123295 3.31385 0.0620211 3.27698 0.286559C3.26991 0.329378 3.27638 0.374444 3.27592 0.418519C3.27341 0.660634 3.35296 0.951845 3.24573 1.13151C3.13004 1.32526 2.82584 1.15147 2.60252 1.1781C1.83642 1.26929 1.29008 1.95651 1.28195 2.89332C1.27475 3.71911 1.2731 4.54517 1.28532 5.37077C1.28862 5.59226 1.24231 5.69627 1.00002 5.66759C0.686449 5.63052 0.265442 5.80517 0.0847361 5.59339C-0.0698711 5.41226 0.0344557 5.00541 0.0339932 4.69841C0.0318128 3.27797 0.0381557 1.85746 0.0277825 0.437087C0.0261307 0.206801 0.0860575 0.119246 0.320743 0.14462C0.60234 0.175017 0.960249 0.031096 1.14948 0.202638C1.328 0.364334 1.17419 0.724268 1.22513 1.05354"/>
	<path fill="rgb(255,255,255)" stroke="none" transform="translate(47.3695 0.00549316)" d="M1.55583 0.00352717C2.01761 0.00352717 2.47945 0.00848312 2.94109 0.000751841C3.09384 -0.00182525 3.15483 0.0393422 3.15311 0.203021C3.14578 0.906633 3.14591 1.61038 3.15298 2.31412C3.15463 2.47542 3.09768 2.51903 2.94274 2.51804C2.03023 2.51223 1.11771 2.5119 0.2052 2.51837C0.0487433 2.51943 -0.0018013 2.47555 4.87006e-05 2.31571C0.00784513 1.6121 0.00764692 0.908219 0.000114772 0.204606C-0.00160309 0.0470734 0.0445808 -0.00321292 0.203615 0.000157127C0.654156 0.0098047 1.10503 0.00352717 1.55583 0.00352717"/>
	<path fill="rgb(255,255,255)" stroke="none" transform="translate(107.054 1.50922)" d="M0.667002 1.19388C0.667002 0.973767 0.652797 0.752401 0.671099 0.533811C0.688541 0.324075 0.608001 0.282709 0.411571 0.273987C0.271367 0.267775 -0.00725546 0.41956 0.000144522 0.151476C0.00741237 -0.108612 0.282005 0.0475992 0.429146 0.0363658C0.768422 0.0106609 1.111 0.0292292 1.45219 0.0277094C1.5548 0.0272468 1.65298 0.0166741 1.64876 0.170639C1.64473 0.31674 1.54205 0.278943 1.46138 0.284229C0.964059 0.316806 0.964059 0.31641 0.964059 0.817489C0.964059 1.16976 0.966768 1.52203 0.962407 1.87423C0.96102 1.98319 1.01348 2.13352 0.807206 2.12645C0.626633 2.12031 0.670702 1.98782 0.668522 1.88738C0.663765 1.6563 0.667068 1.42509 0.667002 1.19388"/>

</svg>