<?xml version="1.0" encoding="iso-8859-1"?>
<!-- Generator: Adobe Illustrator 21.0.2, SVG Export Plug-In . SVG Version: 6.00 Build 0)  -->
<svg version="1.1" id="Layer_1" xmlns="http://www.w3.org/2000/svg" xmlns:xlink="http://www.w3.org/1999/xlink" x="0px" y="0px"
	 viewBox="0 0 448 128" style="enable-background:new 0 0 448 128;" xml:space="preserve">
<g>
	<path style="fill:#ED1C24;" d="M123.483,29.663l-4.846,18.814h17.638c0,0,7.91-2.031,4.596,3.848c0,0-10.69,34.527-7.91,37.841
		c0,0,2.565,10.476,16.604,5.095l4.703-2.28l-1.14,4.383h31.178l-2.565,10.975h37.841l10.69-37.342c0,0,1.782-8.445,3.064,0.249
		l6.663,26.474h11.758l4.846-17.246c0,0,1.532-9.193,2.815,0l4.846,17.246h29.396l5.345-17.495h-21.735c0,0-4.347,1.283-4.596-4.098
		l-8.659-32.995h-5.594l-8.694,30.679l-11.01-43.114h-5.345L215.555,91.27h-20.239l2.815-8.694c0,0,2.031-4.596-2.031-3.563H171.8
		c0,0-5.38,1.14-3.064-4.49l11.473-44.86h-7.661l-14.716,52.557c-1.119,3.091-4.27,4.957-7.518,4.454c0,0-6.378,0.499-3.848-6.663
		l14.609-50.348H123.483z"/>
	<path style="fill:#ED1C24;" d="M188.155,66.898l-1.461,4.81c0,1.318-1.461,1.033-1.461,1.033h-10.939
		c-2.174,0.392-1.924-0.641-1.924-0.641l1.461-5.737c0,0,0.428-1.39,1.39-1.283h0.713l4.454-15.25
		c0.428-0.499-0.534-1.033-0.534-1.033c-1.033,0-0.534-1.782-0.534-1.782l1.532-4.169c0,0,0.249-1.033,1.96-0.855h9.193
		c0.784-0.249,1.176,0.677,1.176,0.677c0.428,1.283,1.603,0.356,1.603,0.356c0.249-0.926,3.563-1.532,3.563-1.532
		c9.122-0.784,6.877,6.913,6.877,6.913l-4.632,16.604c1.888-0.249,0.677,1.675,0.677,1.675l-1.995,5.38
		c-0.321,0.891-1.39,0.641-1.39,0.641h-7.554c-3.563,0.891-2.102-1.603-2.102-1.603l5.238-19.17
		c-0.82-2.423-2.494,0.178-2.494,0.178l-3.919,12.222c0,0,0,0.641,0.428,0.713c0,0,1.354-0.392,0.641,1.853"/>
	<path style="fill:#ED1C24;" d="M210.424,49.759c0-0.891-1.105-0.82-1.105-0.82c-1.283,0-0.713-0.713-0.713-0.713l1.283-4.739
		c0.075-0.863,0.835-1.501,1.698-1.426c0.076,0.007,0.152,0.019,0.226,0.037h9.763c2.245-0.321,0.249,3.777,0.249,3.777
		l-5.63,17.816c-0.428,1.211,0,1.283,0,1.283c2.174-0.178,0.57,3.278,0.57,3.278l-0.891,3.848c-0.534,1.069-1.354,0.748-1.354,0.748
		h-9.442c-2.993,0.463-2.744-0.713-2.744-0.713l1.39-5.737c-0.083-0.704,0.419-1.341,1.123-1.425
		c0.307-0.036,0.617,0.039,0.872,0.213c0,0,0.463-0.249,0.784-1.675L210.424,49.759z"/>
	<path style="fill:#ED1C24;" d="M218.049,30.838c3.563-0.784,6.877,0.713,7.305,3.349c0.428,2.637-2.138,5.38-5.701,6.164
		c-3.563,0.784-6.877-0.748-7.304-3.349C211.921,34.402,214.451,31.622,218.049,30.838"/>
	<path style="fill:#ED1C24;" d="M287.424,42.098c3.172-0.621,6.461-0.196,9.371,1.211c3.374,1.014,5.287,4.57,4.273,7.943
		c-0.069,0.231-0.152,0.458-0.247,0.679l-4.347,13.54c-0.641,1.283,1.853,0.962,1.853,0.962l-2.102,6.841h-10.69v-1.105
		c0-1.14-1.675,0-1.675,0c-1.323,1.213-3.092,1.82-4.882,1.675c-6.129,0-6.271-7.126-6.271-7.126
		c-0.233-5.564,2.921-10.717,7.982-13.041c2.532-1.046,5.401-0.888,7.803,0.428c2.245,1.39,2.102-1.033,2.102-1.033
		c0.321-2.174-1.14-2.672-1.14-2.672c-2.815-1.782-10.689,0.962-10.689,0.962l1.71-7.126c0-0.82,6.841-2.352,6.841-2.352
		 M287.888,62.836c0,0,1.39-3.207-0.249-3.884c0,0-1.96-0.499-2.993,3.207c0,0-1.532,3.884,0.249,4.276c0,0,1.71,1.354,2.993-3.563"
		/>
	<path style="fill:#ED1C24;" d="M320.17,70.318c0,0,3.563-4.454,3.563-6.699h-5.772c0,0-2.28,5.309-4.739,3.563
		c0,0-2.672-1.283,0.713-10.226c0,0,2.672-8.195,4.739-8.231c0.784-0.192,1.575,0.288,1.766,1.071
		c0.006,0.023,0.011,0.046,0.015,0.069c0.372,1.44,0.285,2.96-0.249,4.347h5.951l3.207-11.046h-2.672
		c-0.723,0.253-1.397,0.626-1.995,1.105c-1.077-0.217-2.089-0.681-2.957-1.354c-3.206-1.359-6.843-1.268-9.977,0.249
		c-4.447,2.476-7.766,6.573-9.264,11.438c0,0-4.988,11.758,2.565,17.816c0,0,9.122,4.169,15.143-2.316"/>
	<path style="fill:#ED1C24;" d="M297.259,93.336c-0.02-2.637,2.102-4.79,4.739-4.81c2.637-0.02,4.79,2.102,4.81,4.739
		c0.02,2.637-2.102,4.79-4.739,4.81l-0.035,0c-2.597,0.039-4.735-2.034-4.774-4.631C297.259,93.408,297.258,93.372,297.259,93.336
		 M302.069,97.363c2.164,0.039,3.951-1.683,3.99-3.848c0.039-2.164-1.683-3.951-3.848-3.99c-2.164-0.039-3.951,1.683-3.99,3.848
		c0,0.012,0,0.023,0,0.035c-0.079,2.104,1.563,3.874,3.667,3.953C301.888,97.36,302.009,97.363,302.069,97.363 M301.071,96.151
		h-0.713v-5.523h2.067c1.283,0,1.924,0.463,1.924,1.532c0.039,0.786-0.566,1.455-1.352,1.495c-0.024,0.001-0.049,0.002-0.049,0.002
		l1.508,2.387h-0.926l-1.425-2.352h-1.033V96.151z M302.069,93.087c0.713,0,1.318,0,1.318-0.891s-0.606-0.82-1.176-0.82h-1.14v1.675
		L302.069,93.087z"/>
</g>
</svg>
